frame=   10 fps=0.0 q=22.0 size=      15kB time=00:00:00.33 bitrate= 366.0kbits/s dup=5 drop=0    
frame=   15 fps= 14 q=23.0 size=      23kB time=00:00:00.50 bitrate= 378.5kbits/s dup=5 drop=0    
frame=   22 fps= 13 q=23.0 size=      38kB time=00:00:00.73 bitrate= 423.4kbits/s dup=6 drop=0    
frame=   28 fps= 13 q=24.0 size=      51kB time=00:00:00.93 bitrate= 447.7kbits/s dup=6 drop=0    
frame=   34 fps= 12 q=27.0 size=      72kB time=00:00:01.13 bitrate= 519.1kbits/s dup=7 drop=0    
frame=   41 fps= 12 q=23.0 size=      82kB time=00:00:01.36 bitrate= 493.1kbits/s dup=8 drop=0    
frame=   47 fps= 12 q=25.0 size=      94kB time=00:00:01.56 bitrate= 490.1kbits/s dup=8 drop=0    
frame=   54 fps= 12 q=26.0 size=     111kB time=00:00:01.80 bitrate= 505.0kbits/s dup=9 drop=0    
frame=   68 fps= 13 q=24.0 size=     149kB time=00:00:02.26 bitrate= 538.9kbits/s dup=18 drop=0    
frame=   79 fps= 14 q=25.0 size=     182kB time=00:00:02.63 bitrate= 565.3kbits/s dup=25 drop=0    
frame=   92 fps= 15 q=27.0 size=     225kB time=00:00:03.06 bitrate= 600.3kbits/s dup=34 drop=0    
frame=  102 fps= 15 q=27.0 size=     245kB time=00:00:03.40 bitrate= 590.7kbits/s dup=40 drop=0    
frame=  114 fps= 16 q=25.0 size=     266kB time=00:00:03.80 bitrate= 572.4kbits/s dup=48 drop=0    
frame=  126 fps= 16 q=25.0 size=     290kB time=00:00:04.20 bitrate= 564.7kbits/s dup=56 drop=0    
frame=  137 fps= 17 q=26.0 size=     309kB time=00:00:04.56 bitrate= 554.0kbits/s dup=63 drop=0    
frame=  149 fps= 17 q=24.0 size=     329kB time=00:00:04.96 bitrate= 541.9kbits/s dup=71 drop=0    
frame=  165 fps= 18 q=26.0 size=     368kB time=00:00:05.50 bitrate= 547.6kbits/s dup=83 drop=0    
frame=  180 fps= 18 q=28.0 size=     412kB time=00:00:06.00 bitrate= 562.5kbits/s dup=94 drop=0    
frame=  197 fps= 18 q=28.0 size=     462kB time=00:00:06.56 bitrate= 575.7kbits/s dup=107 drop=0    
frame=  214 fps= 19 q=28.0 size=     513kB time=00:00:07.13 bitrate= 589.5kbits/s dup=120 drop=0    
frame=  230 fps= 19 q=27.0 size=     547kB time=00:00:07.66 bitrate= 584.0kbits/s dup=132 drop=0    
frame=  244 fps= 19 q=31.0 size=     575kB time=00:00:08.13 bitrate= 579.0kbits/s dup=142 drop=0    
frame=  261 fps= 20 q=30.0 size=     613kB time=00:00:08.70 bitrate= 577.5kbits/s dup=155 drop=0    
frame=  277 fps= 20 q=28.0 size=     651kB time=00:00:09.23 bitrate= 577.5kbits/s dup=167 drop=0    
frame=  295 fps= 20 q=31.0 size=     693kB time=00:00:09.83 bitrate= 577.5kbits/s dup=181 drop=0    
frame=  308 fps= 21 q=31.0 size=     724kB time=00:00:10.26 bitrate= 577.8kbits/s dup=191 drop=0    
frame=  328 fps= 21 q=28.0 size=     758kB time=00:00:10.93 bitrate= 568.2kbits/s dup=207 drop=0    
frame=  347 fps= 21 q=29.0 size=     792kB time=00:00:11.56 bitrate= 561.2kbits/s dup=222 drop=0    
frame=  366 fps= 22 q=27.0 size=     819kB time=00:00:12.20 bitrate= 550.0kbits/s dup=237 drop=0    
frame=  380 fps= 22 q=27.0 size=     844kB time=00:00:12.66 bitrate= 546.0kbits/s dup=248 drop=0    
frame=  399 fps= 22 q=29.0 size=     882kB time=00:00:13.30 bitrate= 543.0kbits/s dup=263 drop=0    
frame=  412 fps= 22 q=31.0 size=     912kB time=00:00:13.73 bitrate= 544.2kbits/s dup=273 drop=0    
frame=  427 fps= 22 q=28.0 size=     945kB time=00:00:14.23 bitrate= 543.6kbits/s dup=285 drop=0    
frame=  441 fps= 22 q=28.0 size=     972kB time=00:00:14.70 bitrate= 541.6kbits/s dup=296 drop=0    
frame=  457 fps= 23 q=27.0 size=    1002kB time=00:00:15.23 bitrate= 538.6kbits/s dup=309 drop=0    
frame=  472 fps= 23 q=28.0 size=    1027kB time=00:00:15.73 bitrate= 534.8kbits/s dup=321 drop=0    
frame=  486 fps= 23 q=28.0 size=    1052kB time=00:00:16.20 bitrate= 532.2kbits/s dup=332 drop=0    
frame=  502 fps= 23 q=26.0 size=    1081kB time=00:00:16.73 bitrate= 529.2kbits/s dup=345 drop=0    
frame=  520 fps= 23 q=26.0 size=    1108kB time=00:00:17.33 bitrate= 523.9kbits/s dup=359 drop=0    
frame=  536 fps= 23 q=25.0 size=    1131kB time=00:00:17.86 bitrate= 518.7kbits/s dup=372 drop=0    